<svg xmlns:xlink="http://www.w3.org/1999/xlink" xmlns="http://www.w3.org/2000/svg" width="100%" height="100%" viewBox="0 0 250 100" class="viz-svg-overlay" style="display: block;"><defs><pattern id="checkerboard" width="20" height="20" patternUnits="userSpaceOnUse"><rect width="10" height="10" fill="#f0f0f0"/><rect x="10" y="10" width="10" height="10" fill="#f0f0f0"/><rect x="10" y="0" width="10" height="10" fill="#ffffff"/><rect x="0" y="10" width="10" height="10" fill="#ffffff"/></pattern><path id="wave-path-h" d="M35,80 Q75,70 115,80 T195,80"/></defs><g class="content-group"><text x="30" y="55" fill="#3E2723" font-family="serif" font-weight="bold" font-size="42px">李武略</text><text fill="#3E2723" font-family="system-ui, sans-serif" font-size="10px" letter-spacing="0.5px"><textPath xmlns:ns1="http://www.w3.org/1999/xlink" ns1:href="#wave-path-h">LI WULUE'S LI CLAN ASSOCIATION</textPath></text><path d="M0,0 C2,-5 8,-8 10,-2 C6,-1 2,2 0,0 M0,0 C-2,-5 -8,-8 -10,-2 C-6,-1 -2,2 0,0 M0,0 L0,5" transform="translate(175, 35) scale(0.8) rotate(15)" fill="#2E7D32"/><path d="M0,0 Q10,-10 20,0" transform="translate(170, 50)" stroke="#2E7D32" stroke-width="2" fill="none"/></g></svg>