<?xml version="1.0" encoding="UTF-8"?>
<svg width="1024" height="1024" viewBox="0 0 1000 1000" xmlns="http://www.w3.org/2000/svg">
  <rect width="1000" height="1000" fill="none" />
  <ellipse cx="880" cy="500" rx="8" ry="18" fill="#DAA520" transform="rotate(90, 880, 500)" /><ellipse cx="876.749047322048" cy="549.5999530436196" rx="8" ry="18" fill="#DAA520" transform="rotate(97.5, 876.749047322048, 549.5999530436196)" /><ellipse cx="867.051813989846" cy="598.3512371389579" rx="8" ry="18" fill="#DAA520" transform="rotate(105, 867.051813989846, 598.3512371389579)" /><ellipse cx="851.074222354289" cy="645.4197042987341" rx="8" ry="18" fill="#DAA520" transform="rotate(112.5, 851.074222354289, 645.4197042987341)" /><ellipse cx="829.0896534380868" cy="690" rx="8" ry="18" fill="#DAA520" transform="rotate(120, 829.0896534380868, 690)" /><ellipse cx="801.4742693106693" cy="731.3293430233139" rx="8" ry="18" fill="#DAA520" transform="rotate(127.5, 801.4742693106693, 731.3293430233139)" /><ellipse cx="768.7005768508881" cy="768.700576850888" rx="8" ry="18" fill="#DAA520" transform="rotate(135, 768.7005768508881, 768.700576850888)" /><ellipse cx="731.3293430233139" cy="801.4742693106693" rx="8" ry="18" fill="#DAA520" transform="rotate(142.5, 731.3293430233139, 801.4742693106693)" /><ellipse cx="690" cy="829.0896534380867" rx="8" ry="18" fill="#DAA520" transform="rotate(150, 690, 829.0896534380867)" /><ellipse cx="645.4197042987341" cy="851.074222354289" rx="8" ry="18" fill="#DAA520" transform="rotate(157.5, 645.4197042987341, 851.074222354289)" /><ellipse cx="598.3512371389579" cy="867.051813989846" rx="8" ry="18" fill="#DAA520" transform="rotate(165, 598.3512371389579, 867.051813989846)" /><ellipse cx="549.5999530436196" cy="876.749047322048" rx="8" ry="18" fill="#DAA520" transform="rotate(172.5, 549.5999530436196, 876.749047322048)" /><ellipse cx="500" cy="880" rx="8" ry="18" fill="#DAA520" transform="rotate(180, 500, 880)" /><ellipse cx="450.4000469563805" cy="876.749047322048" rx="8" ry="18" fill="#DAA520" transform="rotate(187.5, 450.4000469563805, 876.749047322048)" /><ellipse cx="401.6487628610421" cy="867.051813989846" rx="8" ry="18" fill="#DAA520" transform="rotate(195, 401.6487628610421, 867.051813989846)" /><ellipse cx="354.58029570126587" cy="851.074222354289" rx="8" ry="18" fill="#DAA520" transform="rotate(202.5, 354.58029570126587, 851.074222354289)" /><ellipse cx="310.0000000000001" cy="829.0896534380868" rx="8" ry="18" fill="#DAA520" transform="rotate(210, 310.0000000000001, 829.0896534380868)" /><ellipse cx="268.67065697668613" cy="801.4742693106693" rx="8" ry="18" fill="#DAA520" transform="rotate(217.5, 268.67065697668613, 801.4742693106693)" /><ellipse cx="231.299423149112" cy="768.7005768508881" rx="8" ry="18" fill="#DAA520" transform="rotate(225, 231.299423149112, 768.7005768508881)" /><ellipse cx="198.52573068933066" cy="731.3293430233139" rx="8" ry="18" fill="#DAA520" transform="rotate(232.5, 198.52573068933066, 731.3293430233139)" /><ellipse cx="170.9103465619133" cy="690" rx="8" ry="18" fill="#DAA520" transform="rotate(240.00000000000003, 170.9103465619133, 690)" /><ellipse cx="148.92577764571104" cy="645.4197042987341" rx="8" ry="18" fill="#DAA520" transform="rotate(247.5, 148.92577764571104, 645.4197042987341)" /><ellipse cx="132.94818601015407" cy="598.351237138958" rx="8" ry="18" fill="#DAA520" transform="rotate(254.99999999999997, 132.94818601015407, 598.351237138958)" /><ellipse cx="123.25095267795206" cy="549.5999530436196" rx="8" ry="18" fill="#DAA520" transform="rotate(262.5, 123.25095267795206, 549.5999530436196)" /><ellipse cx="120" cy="500.00000000000006" rx="8" ry="18" fill="#DAA520" transform="rotate(270, 120, 500.00000000000006)" /><ellipse cx="123.25095267795206" cy="450.4000469563803" rx="8" ry="18" fill="#DAA520" transform="rotate(277.5, 123.25095267795206, 450.4000469563803)" /><ellipse cx="132.94818601015402" cy="401.64876286104226" rx="8" ry="18" fill="#DAA520" transform="rotate(285, 132.94818601015402, 401.64876286104226)" /><ellipse cx="148.92577764571098" cy="354.5802957012659" rx="8" ry="18" fill="#DAA520" transform="rotate(292.5, 148.92577764571098, 354.5802957012659)" /><ellipse cx="170.91034656191334" cy="310" rx="8" ry="18" fill="#DAA520" transform="rotate(300, 170.91034656191334, 310)" /><ellipse cx="198.52573068933054" cy="268.67065697668625" rx="8" ry="18" fill="#DAA520" transform="rotate(307.5, 198.52573068933054, 268.67065697668625)" /><ellipse cx="231.29942314911187" cy="231.299423149112" rx="8" ry="18" fill="#DAA520" transform="rotate(315, 231.29942314911187, 231.299423149112)" /><ellipse cx="268.6706569766861" cy="198.52573068933071" rx="8" ry="18" fill="#DAA520" transform="rotate(322.5, 268.6706569766861, 198.52573068933071)" /><ellipse cx="309.99999999999983" cy="170.9103465619134" rx="8" ry="18" fill="#DAA520" transform="rotate(330, 309.99999999999983, 170.9103465619134)" /><ellipse cx="354.58029570126564" cy="148.92577764571115" rx="8" ry="18" fill="#DAA520" transform="rotate(337.5, 354.58029570126564, 148.92577764571115)" /><ellipse cx="401.64876286104214" cy="132.94818601015402" rx="8" ry="18" fill="#DAA520" transform="rotate(345, 401.64876286104214, 132.94818601015402)" /><ellipse cx="450.4000469563804" cy="123.25095267795206" rx="8" ry="18" fill="#DAA520" transform="rotate(352.5, 450.4000469563804, 123.25095267795206)" /><ellipse cx="499.99999999999994" cy="120" rx="8" ry="18" fill="#DAA520" transform="rotate(360, 499.99999999999994, 120)" /><ellipse cx="549.5999530436195" cy="123.250952677952" rx="8" ry="18" fill="#DAA520" transform="rotate(367.5, 549.5999530436195, 123.250952677952)" /><ellipse cx="598.3512371389577" cy="132.94818601015402" rx="8" ry="18" fill="#DAA520" transform="rotate(375, 598.3512371389577, 132.94818601015402)" /><ellipse cx="645.4197042987341" cy="148.9257776457111" rx="8" ry="18" fill="#DAA520" transform="rotate(382.50000000000006, 645.4197042987341, 148.9257776457111)" /><ellipse cx="690" cy="170.91034656191334" rx="8" ry="18" fill="#DAA520" transform="rotate(390.00000000000006, 690, 170.91034656191334)" /><ellipse cx="731.3293430233139" cy="198.52573068933066" rx="8" ry="18" fill="#DAA520" transform="rotate(397.5, 731.3293430233139, 198.52573068933066)" /><ellipse cx="768.700576850888" cy="231.29942314911187" rx="8" ry="18" fill="#DAA520" transform="rotate(405, 768.700576850888, 231.29942314911187)" /><ellipse cx="801.4742693106693" cy="268.6706569766861" rx="8" ry="18" fill="#DAA520" transform="rotate(412.5, 801.4742693106693, 268.6706569766861)" /><ellipse cx="829.0896534380865" cy="309.99999999999983" rx="8" ry="18" fill="#DAA520" transform="rotate(419.99999999999994, 829.0896534380865, 309.99999999999983)" /><ellipse cx="851.0742223542888" cy="354.58029570126564" rx="8" ry="18" fill="#DAA520" transform="rotate(427.49999999999994, 851.0742223542888, 354.58029570126564)" /><ellipse cx="867.051813989846" cy="401.64876286104214" rx="8" ry="18" fill="#DAA520" transform="rotate(435, 867.051813989846, 401.64876286104214)" /><ellipse cx="876.749047322048" cy="450.4000469563804" rx="8" ry="18" fill="#DAA520" transform="rotate(442.5, 876.749047322048, 450.4000469563804)" /><path d="M 300 620 Q 500 670 700 620" stroke="#5C4033" stroke-width="8" fill="none" stroke-linecap="round" /><path d="M 300 650 Q 500 700 700 650" stroke="#5C4033" stroke-width="8" fill="none" stroke-linecap="round" /><path d="M 300 680 Q 500 730 700 680" stroke="#5C4033" stroke-width="8" fill="none" stroke-linecap="round" /><text x="500" y="520" font-family="serif" font-weight="bold" font-size="140" text-anchor="middle" fill="#5C4033">李武略</text>
</svg>